<svg xmlns="http://www.w3.org/2000/svg" xmlns:xlink="http://www.w3.org/1999/xlink" viewBox="0 0 315.43 348.9"><defs><style>.cls-1{isolation:isolate;}.cls-2{fill:url(#linear-gradient);}.cls-3{fill:url(#linear-gradient-2);}.cls-4{fill:url(#linear-gradient-3);}.cls-5{fill:url(#linear-gradient-4);}.cls-6{fill:url(#linear-gradient-5);}.cls-12,.cls-19,.cls-21,.cls-22,.cls-23,.cls-25,.cls-26,.cls-27,.cls-34,.cls-39,.cls-49,.cls-53,.cls-54,.cls-7{mix-blend-mode:screen;}.cls-7{fill:url(#radial-gradient);}.cls-8{fill:url(#linear-gradient-6);}.cls-9{fill:url(#linear-gradient-7);}.cls-10{fill:url(#linear-gradient-8);}.cls-11,.cls-47{mix-blend-mode:multiply;}.cls-11{fill:url(#linear-gradient-9);}.cls-12{fill:url(#radial-gradient-2);}.cls-13{fill:url(#linear-gradient-10);}.cls-14{fill:url(#linear-gradient-11);}.cls-15{fill:url(#linear-gradient-12);}.cls-16{fill:url(#linear-gradient-13);}.cls-17{fill:url(#linear-gradient-14);}.cls-18{fill:url(#linear-gradient-15);}.cls-19{fill:url(#radial-gradient-3);}.cls-20{fill:url(#linear-gradient-16);}.cls-21{fill:url(#radial-gradient-4);}.cls-22{fill:url(#radial-gradient-5);}.cls-23{fill:url(#radial-gradient-6);}.cls-24{fill:url(#linear-gradient-17);}.cls-25{fill:url(#linear-gradient-19);}.cls-26{fill:url(#linear-gradient-20);}.cls-27{fill:url(#radial-gradient-7);}.cls-28{fill:url(#linear-gradient-21);}.cls-29{fill:url(#linear-gradient-22);}.cls-30{fill:url(#linear-gradient-23);}.cls-31{fill:url(#linear-gradient-24);}.cls-32{fill:url(#linear-gradient-25);}.cls-33{fill:url(#linear-gradient-26);}.cls-34{fill:url(#radial-gradient-8);}.cls-35{fill:url(#linear-gradient-27);}.cls-36{fill:url(#linear-gradient-28);}.cls-37{fill:url(#linear-gradient-29);}.cls-38{fill:url(#linear-gradient-30);}.cls-39{fill:url(#radial-gradient-9);}.cls-40{fill:url(#linear-gradient-31);}.cls-41{fill:url(#linear-gradient-32);}.cls-42{fill:url(#linear-gradient-33);}.cls-43{fill:url(#linear-gradient-35);}.cls-44{fill:url(#linear-gradient-36);}.cls-45{fill:url(#linear-gradient-37);}.cls-46{fill:url(#linear-gradient-38);}.cls-47{fill:url(#linear-gradient-39);}.cls-48{fill:#231f20;}.cls-49{fill:url(#radial-gradient-10);}.cls-50{fill:url(#linear-gradient-40);}.cls-51{fill:url(#linear-gradient-41);}.cls-52{fill:url(#linear-gradient-42);}.cls-53{fill:url(#radial-gradient-11);}.cls-54{fill:url(#linear-gradient-43);}.cls-55{font-size:47.63px;fill:#0096b0;font-family:BerkshireSwash-Regular, Berkshire Swash;letter-spacing:0.02em;}.cls-56{letter-spacing:-0.01em;}.cls-57{letter-spacing:0.02em;}</style><linearGradient id="linear-gradient" x1="280.88" y1="60.33" x2="140.99" y2="303.45" gradientUnits="userSpaceOnUse"><stop offset="0" stop-color="#003f8c"/><stop offset="0" stop-color="#003e8b"/><stop offset="0.09" stop-color="#003578"/><stop offset="0.18" stop-color="#002f6d"/><stop offset="0.28" stop-color="#002d69"/><stop offset="0.67" stop-color="#041850"/><stop offset="0.89" stop-color="#000838"/><stop offset="1" stop-color="#00063b"/></linearGradient><linearGradient id="linear-gradient-2" x1="187.51" y1="299.24" x2="315.55" y2="299.24" gradientUnits="userSpaceOnUse"><stop offset="0" stop-color="#0ee6d0"/><stop offset="0.03" stop-color="#0ce2d2"/><stop offset="0.15" stop-color="#05d7d6"/><stop offset="0.28" stop-color="#03d3d8"/><stop offset="0.67" stop-color="#00a2bf"/><stop offset="0.89" stop-color="#007e8f"/><stop offset="1" stop-color="#005670"/></linearGradient><linearGradient id="linear-gradient-3" x1="190.18" y1="317.77" x2="291.61" y2="301.49" xlink:href="#linear-gradient-2"/><linearGradient id="linear-gradient-4" x1="192.9" y1="320.45" x2="280.32" y2="297.74" gradientUnits="userSpaceOnUse"><stop offset="0" stop-color="#0ee6d0"/><stop offset="0.03" stop-color="#0ce2d2"/><stop offset="0.18" stop-color="#05d7d6"/><stop offset="0.33" stop-color="#03d3d8"/><stop offset="0.71" stop-color="#00a2bf"/><stop offset="0.92" stop-color="#007e8f"/><stop offset="1" stop-color="#005670"/></linearGradient><linearGradient id="linear-gradient-5" x1="190.07" y1="317.04" x2="291.42" y2="300.78" xlink:href="#linear-gradient-2"/><radialGradient id="radial-gradient" cx="251.53" cy="292.83" r="46.7" gradientUnits="userSpaceOnUse"><stop offset="0" stop-color="#00d4db"/><stop offset="0.83"/><stop offset="1"/></radialGradient><linearGradient id="linear-gradient-6" x1="180.14" y1="306.85" x2="367.88" y2="275.99" xlink:href="#linear-gradient-2"/><linearGradient id="linear-gradient-7" x1="196.78" y1="315.53" x2="349.85" y2="290.37" xlink:href="#linear-gradient-2"/><linearGradient id="linear-gradient-8" x1="186.17" y1="354.94" x2="355.39" y2="266.35" gradientUnits="userSpaceOnUse"><stop offset="0" stop-color="#0ee6d0"/><stop offset="0.03" stop-color="#0ce2d2"/><stop offset="0.18" stop-color="#05d7d6"/><stop offset="0.33" stop-color="#03d3d8"/><stop offset="0.65" stop-color="#00a2bf"/><stop offset="0.83" stop-color="#007e8f"/><stop offset="0.91" stop-color="#005670"/></linearGradient><linearGradient id="linear-gradient-9" x1="236.42" y1="301.17" x2="351.87" y2="301.17" gradientUnits="userSpaceOnUse"><stop offset="0" stop-color="#f9f9f9"/><stop offset="0.02" stop-color="#f4f3f3"/><stop offset="1" stop-color="#003745"/></linearGradient><radialGradient id="radial-gradient-2" cx="300.04" cy="275.4" r="64.98" xlink:href="#radial-gradient"/><linearGradient id="linear-gradient-10" x1="201.83" y1="229.24" x2="333.9" y2="326.62" gradientUnits="userSpaceOnUse"><stop offset="0" stop-color="#0ee6d0"/><stop offset="1" stop-color="#005670"/></linearGradient><linearGradient id="linear-gradient-11" x1="318.63" y1="82.06" x2="178.74" y2="325.17" gradientUnits="userSpaceOnUse"><stop offset="0" stop-color="#787d80"/><stop offset="0.01" stop-color="#72777a"/><stop offset="0.08" stop-color="#5a5d5f"/><stop offset="0.14" stop-color="#484a4c"/><stop offset="0.21" stop-color="#3d3f41"/><stop offset="0.28" stop-color="#3a3b3d"/><stop offset="0.67" stop-color="#272727"/><stop offset="0.89" stop-color="#111112"/><stop offset="1" stop-color="#141415"/></linearGradient><linearGradient id="linear-gradient-12" x1="522.98" y1="137.94" x2="-35.52" y2="264.97" xlink:href="#linear-gradient-11"/><linearGradient id="linear-gradient-13" x1="321.7" y1="190.04" x2="328.13" y2="246.48" gradientUnits="userSpaceOnUse"><stop offset="0" stop-color="#fff"/><stop offset="0.24" stop-color="#f7f7f7"/><stop offset="0.62" stop-color="#e1e1e1"/><stop offset="1" stop-color="#c4c4c4"/></linearGradient><linearGradient id="linear-gradient-14" x1="314.18" y1="264.51" x2="335" y2="221.21" xlink:href="#linear-gradient-13"/><linearGradient id="linear-gradient-15" x1="350.84" y1="254.9" x2="350.85" y2="254.99" xlink:href="#linear-gradient-13"/><radialGradient id="radial-gradient-3" cx="163.94" cy="227.2" r="51.25" gradientUnits="userSpaceOnUse"><stop offset="0" stop-color="#b8c1c4"/><stop offset="0.83"/><stop offset="1"/></radialGradient><linearGradient id="linear-gradient-16" x1="549.35" y1="124.88" x2="-23.17" y2="255.1" xlink:href="#linear-gradient-11"/><radialGradient id="radial-gradient-4" cx="190.57" cy="216.33" r="73.97" xlink:href="#radial-gradient-3"/><radialGradient id="radial-gradient-5" cx="395.47" cy="253.49" r="85.87" gradientUnits="userSpaceOnUse"><stop offset="0" stop-color="#64676a"/><stop offset="0.83"/><stop offset="1"/></radialGradient><radialGradient id="radial-gradient-6" cx="207.55" cy="280.51" r="127.46" xlink:href="#radial-gradient-3"/><linearGradient id="linear-gradient-17" x1="263.15" y1="77.46" x2="220.75" y2="457.08" xlink:href="#linear-gradient-11"/><linearGradient id="linear-gradient-19" x1="334.47" y1="160.3" x2="409.58" y2="44.04" gradientUnits="userSpaceOnUse"><stop offset="0"/><stop offset="0.17"/><stop offset="0.79" stop-color="#64676a"/><stop offset="0.83" stop-color="#606366"/><stop offset="0.87" stop-color="#545759"/><stop offset="0.91" stop-color="#414345"/><stop offset="0.95" stop-color="#252728"/><stop offset="1" stop-color="#020303"/><stop offset="1"/></linearGradient><linearGradient id="linear-gradient-20" x1="188.06" y1="148.18" x2="126.93" y2="-4" xlink:href="#linear-gradient-19"/><radialGradient id="radial-gradient-7" cx="285.68" cy="87.08" r="127.5" xlink:href="#linear-gradient-19"/><linearGradient id="linear-gradient-21" x1="301.23" y1="350.16" x2="71.86" y2="-329.81" gradientUnits="userSpaceOnUse"><stop offset="0" stop-color="#3a3b3d"/><stop offset="0.29" stop-color="#373839"/><stop offset="0.55" stop-color="#2e2e2f"/><stop offset="0.67" stop-color="#272727"/><stop offset="0.89" stop-color="#111112"/><stop offset="1" stop-color="#141415"/></linearGradient><linearGradient id="linear-gradient-22" x1="320.13" y1="277.85" x2="334.57" y2="190.13" xlink:href="#linear-gradient-11"/><linearGradient id="linear-gradient-23" x1="316.69" y1="153.84" x2="301.29" y2="200.72" xlink:href="#linear-gradient-13"/><linearGradient id="linear-gradient-24" x1="304.68" y1="151.78" x2="315.82" y2="189.74" gradientUnits="userSpaceOnUse"><stop offset="0" stop-color="#fff"/><stop offset="0.12" stop-color="#f6f6f6"/><stop offset="0.7" stop-color="#d2d2d2"/><stop offset="1" stop-color="#c4c4c4"/></linearGradient><linearGradient id="linear-gradient-25" x1="307.36" y1="205.09" x2="313.49" y2="146.47" xlink:href="#linear-gradient-24"/><linearGradient id="linear-gradient-26" x1="290.32" y1="55.55" x2="75.15" y2="165.13" xlink:href="#linear-gradient-11"/><radialGradient id="radial-gradient-8" cx="298.91" cy="71.73" r="68.35" xlink:href="#radial-gradient-5"/><linearGradient id="linear-gradient-27" x1="282.93" y1="62.34" x2="176.6" y2="84.11" xlink:href="#linear-gradient-11"/><linearGradient id="linear-gradient-28" x1="285.43" y1="61.82" x2="201.16" y2="79.08" xlink:href="#linear-gradient-11"/><linearGradient id="linear-gradient-29" x1="305.15" y1="74.65" x2="221.7" y2="356.83" xlink:href="#linear-gradient-11"/><linearGradient id="linear-gradient-30" x1="200.57" y1="153.14" x2="335.75" y2="318.7" xlink:href="#linear-gradient-11"/><radialGradient id="radial-gradient-9" cx="264.97" cy="232.88" r="46.79" xlink:href="#radial-gradient-5"/><linearGradient id="linear-gradient-31" x1="369.11" y1="221.82" x2="187.42" y2="228.66" xlink:href="#linear-gradient-11"/><linearGradient id="linear-gradient-32" x1="174.43" y1="155.96" x2="205.03" y2="207" xlink:href="#linear-gradient-13"/><linearGradient id="linear-gradient-33" x1="207.4" y1="181.95" x2="241.33" y2="148.32" xlink:href="#linear-gradient-13"/><linearGradient id="linear-gradient-35" x1="182.8" y1="248.74" x2="216.13" y2="144.41" xlink:href="#linear-gradient-11"/><linearGradient id="linear-gradient-36" x1="210.81" y1="254.4" x2="183.31" y2="136.9" xlink:href="#linear-gradient-13"/><linearGradient id="linear-gradient-37" x1="202.24" y1="203.88" x2="192.07" y2="153.55" xlink:href="#linear-gradient-13"/><linearGradient id="linear-gradient-38" x1="186.81" y1="253.08" x2="187.2" y2="253.08" gradientUnits="userSpaceOnUse"><stop offset="0" stop-color="#ababab"/><stop offset="0.04" stop-color="#a6a7a8"/><stop offset="0.15" stop-color="#9b9ea1"/><stop offset="0.28" stop-color="#979b9f"/><stop offset="0.67" stop-color="#838588"/><stop offset="0.89" stop-color="#6c6d73"/><stop offset="1" stop-color="#727275"/></linearGradient><linearGradient id="linear-gradient-39" x1="246.87" y1="198.17" x2="272.31" y2="187.17" gradientUnits="userSpaceOnUse"><stop offset="0" stop-color="#f9f9f9"/><stop offset="0.02" stop-color="#f4f3f3"/><stop offset="1" stop-color="#8d8d8d"/></linearGradient><radialGradient id="radial-gradient-10" cx="330.42" cy="204.97" r="7.14" gradientUnits="userSpaceOnUse"><stop offset="0" stop-color="#c4c4c4"/><stop offset="0.83"/><stop offset="1"/></radialGradient><linearGradient id="linear-gradient-40" x1="157.93" y1="282" x2="164.37" y2="259.28" xlink:href="#linear-gradient-13"/><linearGradient id="linear-gradient-41" x1="154.24" y1="280.95" x2="164.58" y2="244.46" xlink:href="#linear-gradient-13"/><linearGradient id="linear-gradient-42" x1="154" y1="248.69" x2="167.05" y2="269.89" xlink:href="#linear-gradient-13"/><radialGradient id="radial-gradient-11" cx="395.47" cy="253.49" r="85.87" xlink:href="#radial-gradient-5"/><linearGradient id="linear-gradient-43" x1="327.92" y1="168.07" x2="483.2" y2="278.62" xlink:href="#linear-gradient-19"/></defs><g class="cls-1"><g id="Layer_1" data-name="Layer 1"><path class="cls-2" d="M157.21,276.78c-.69-.08-1.38-.2-2.06-.33a18.89,18.89,0,0,1,.87,3.28c.13-.42.27-.85.43-1.27A18,18,0,0,1,157.21,276.78Z" transform="translate(-93.34 -45.43)"/><path class="cls-3" d="M315.55,303.74a131.52,131.52,0,0,1-16.05,9,121.33,121.33,0,0,1-63.08,8h0a120,120,0,0,1-48.91-18.3A54.24,54.24,0,0,0,201,304.1c15.48,0,29.75-6.62,41.11-17.72.3-.28.59-.57.88-.86l.12-.12c5.85-5.52,13.12-8.8,21-8.8A30,30,0,0,1,283.43,284a41.13,41.13,0,0,1,9.62,12c.06.09.1.18.15.27,3.25,5.9,8.66,9.73,14.76,9.68A14.91,14.91,0,0,0,315.55,303.74Z" transform="translate(-93.34 -45.43)"/><path class="cls-4" d="M262.35,298.75c-13.09-.1-15.25,9.33-37.17,10.83a82.46,82.46,0,0,1-37.67-7.18,120,120,0,0,0,48.91,18.3h0a121.55,121.55,0,0,0,48-2.87C283.43,311.16,276.74,298.85,262.35,298.75Z" transform="translate(-93.34 -45.43)"/><path class="cls-5" d="M284.69,316l-.6.16c-1.73-6.85-8.46-17.36-21.75-17.46-13.08-.09-15.25,9.34-37.16,10.84a82.46,82.46,0,0,1-37.67-7.18,82.43,82.43,0,0,0,37.79,6.48c21.89-1.9,23.88-11.37,37-11.51C276.65,297.2,283.58,309.39,284.69,316Z" transform="translate(-93.34 -45.43)"/><path class="cls-6" d="M284.09,316.2a121.68,121.68,0,0,1-47.34,3.6h0a120.09,120.09,0,0,1-49.23-17.4,82.46,82.46,0,0,0,37.67,7.18c21.91-1.5,24.08-10.93,37.16-10.84C275.63,298.84,282.36,309.35,284.09,316.2Z" transform="translate(-93.34 -45.43)"/><path class="cls-7" d="M315.54,303.73q-4.34,2.85-8.84,5.32h0c-5.63-.55-10.47-4.39-13.37-10l-.14-.27c-2.43-4.81-5.14-9.22-8.84-12.5-5.42-4.8-12.34-8.18-19.5-8.37-7.86-.21-15.35,3.6-21.35,9l-.12.11c-.29.28-.59.57-.9.84-11.65,10.8-26.09,17-41.57,16.62a53.81,53.81,0,0,1-13.39-2.05A54.16,54.16,0,0,0,201,304.09c15.48,0,29.75-6.61,41.12-17.71.3-.28.59-.58.88-.87l.11-.11c5.85-5.52,13.12-8.8,21-8.8A30,30,0,0,1,283.43,284a41.16,41.16,0,0,1,9.62,12c.05.09.09.18.15.27,3.24,5.9,8.65,9.73,14.76,9.68A14.79,14.79,0,0,0,315.54,303.73Z" transform="translate(-93.34 -45.43)"/><path class="cls-8" d="M358.32,260.91a121,121,0,0,1-121.9,59.79,56.41,56.41,0,0,0,16.73-5.63c12.79-6.62,23.1-17.63,30.28-31.1q1.31-2.45,2.46-5c.19-.4.38-.82.56-1.22,0-.06.05-.11.07-.16,3.76-7.91,9.5-14.43,16.78-18.19,11.16-5.77,23.31-3.76,32.65,4.06a1.81,1.81,0,0,1,.23.18,14.67,14.67,0,0,0,16.56,1.89A18.24,18.24,0,0,0,358.32,260.91Z" transform="translate(-93.34 -45.43)"/><path class="cls-9" d="M302.89,284.4c-8.14,10.49-13.63,19.13-26.5,25.91-17.88,9.41-34.85,9.54-40,10.39a120.4,120.4,0,0,0,99-31.07c3.84-3.5,7-7,7-7s-3.46,4.3-15.54-.36C316.15,278.08,308,277.79,302.89,284.4Z" transform="translate(-93.34 -45.43)"/><path class="cls-10" d="M342.33,282.77c-.33.35-1.19,1.29-2.39,2.51-2.34.56-6.3.57-12.61-1.87-10.79-4.17-18.92-4.46-24,2.15-8.14,10.49-13.64,19.14-26.5,25.92-14,7.37-27.46,9-35.09,9.84-1.77-.17-3.53-.38-5.28-.62,5.11-.85,22.09-1,40-10.39,12.86-6.78,18.36-15.42,26.49-25.91,5.13-6.62,13.26-6.32,24.05-2.16S341.58,283.46,342.33,282.77Z" transform="translate(-93.34 -45.43)"/><path class="cls-11" d="M280.38,281.65c-6.23,13.56-15.62,24.94-27.66,32.27a56.35,56.35,0,0,1-16.3,6.78,56.16,56.16,0,0,0,16.73-5.64c12.78-6.61,23.1-17.63,30.28-31.09C282.76,283.37,280.87,282,280.38,281.65Z" transform="translate(-93.34 -45.43)"/><path class="cls-12" d="M358.31,260.9a16.68,16.68,0,0,1-5.41,5c-5.57,3.09-11.72,2.78-16.4-1.22l-.22-.18c-10.11-8-21.61-9.56-32.56-4.17-7.36,3.62-12.38,10.51-16.31,18.35l-.07.16c-.19.4-.38.81-.58,1.2q-1.22,2.52-2.57,4.93c-7.46,13.31-18,24.11-30.93,30.45a56.17,56.17,0,0,1-16.84,5.28,56.16,56.16,0,0,0,16.73-5.64c12.78-6.61,23.1-17.63,30.28-31.09.86-1.63,1.69-3.29,2.46-5,.19-.4.37-.82.55-1.22l.07-.16c3.76-7.92,9.51-14.43,16.79-18.2,11.15-5.77,23.3-3.75,32.65,4.07.08,0,.14.11.22.17a14.64,14.64,0,0,0,16.56,1.89A16,16,0,0,0,358.31,260.9Z" transform="translate(-93.34 -45.43)"/><path class="cls-13" d="M358.31,260.9a121.07,121.07,0,0,1-121.89,59.8h0a120.11,120.11,0,0,1-48.9-18.3c.76.19,1.52.37,2.28.52A120.1,120.1,0,0,0,236,319.53a122.36,122.36,0,0,0,16.9,1.17,120.71,120.71,0,0,0,102.65-57A19,19,0,0,0,358.31,260.9Z" transform="translate(-93.34 -45.43)"/><path class="cls-14" d="M362.93,151.91a122.71,122.71,0,0,0-63.71-62.55h0a121.86,121.86,0,0,0-47.9-9.73,124.13,124.13,0,0,0-12.7.65A122.37,122.37,0,0,0,129.78,215.5h0c.07.63.14,1.25.22,1.87a122,122,0,0,0,3.48,17.29h0c3,13,9.69,25.29,11.59,30.88,2.11,6.21.36,19.05,5.41,29.11a28.59,28.59,0,0,0,1.45,2.55h0c.2.3.39.6.6.89l.12.16a6,6,0,0,0,10.48-2.92c0-.3.05-.6.08-.89a35.21,35.21,0,0,1,23.46-29.78l.93-.31.2-.07a6,6,0,0,0-1.29-11.36c-6.76-1.79-13.39-.06-18.52.72l-.11,0a10.91,10.91,0,0,1-2.64.33c-5.87,0-11.39-4.14-10.62-11.43a57.09,57.09,0,0,1,52.31-46.19c1.07-.08,4.81-.29,7.24-.29a180.41,180.41,0,0,1,39.56,4.78,178.78,178.78,0,0,1,49.82,19.36A180.72,180.72,0,0,1,343.16,251l.55.56a11.47,11.47,0,0,0,19.67-7.74c0-.77,0-1.23,0-1.29a97,97,0,0,1,3.72-25.36C373.3,195.54,372.13,172.43,362.93,151.91Z" transform="translate(-93.34 -45.43)"/><path class="cls-15" d="M352,253.37c-14.33-3.83-15.82-32.62-25.5-42.39s-13.44-.89-41.66-22.15-26.5-34.24-51.59-48.32-57.67-7.26-81.82,18.52c-15,16-21.82,54.78-7.72,90.59,2.08,5.29,11.43,18.38,34.79,6.72,3.5-1.75,8.5,4.16-1,13.12a35.11,35.11,0,0,1,9.12-4.78l.93-.31.2-.07a6,6,0,0,0-1.29-11.36c-6.76-1.79-13.39-.06-18.52.72l-.11,0a10.91,10.91,0,0,1-2.64.33c-5.87,0-11.39-4.14-10.62-11.43a57.09,57.09,0,0,1,52.31-46.19c1.07-.08,4.81-.29,7.24-.29a180.41,180.41,0,0,1,39.56,4.78,178.78,178.78,0,0,1,49.82,19.36A180.72,180.72,0,0,1,343.16,251l.55.56a11.34,11.34,0,0,0,13.5,2.15A10.79,10.79,0,0,1,352,253.37Z" transform="translate(-93.34 -45.43)"/><path class="cls-16" d="M332,229.54a61.92,61.92,0,0,0-7.14-10.49,32.39,32.39,0,0,0-2.76-3c-.8-.76-1.28-1.14-1.28-1.14h0c-4.15-3.5-9.25-5.84-12.17-2.05-1.15,1.78-2.37,3.5-3.51,5.28-.49.76-1.66,2-1.61,2a231.6,231.6,0,0,1,34.88,26.38c1.49,1.43,3.35,3.16,4.78,4.64l.55.56a10.34,10.34,0,0,0,6.92,3.13C349.41,254.63,344.28,251.87,332,229.54Z" transform="translate(-93.34 -45.43)"/><path class="cls-17" d="M350.68,255c-3-.52-10.12-7.77-18.92-23.79a64.73,64.73,0,0,0-7.25-10.84c-6.5-7.48-12.38-10.95-15.47-6.3-1.15,1.77-2.37,3.49-3.51,5.27a17.85,17.85,0,0,1-1.15,1.46l-.83-.51c0-.08,1.12-1.3,1.6-2,1.14-1.78,2.37-3.5,3.52-5.28a4.7,4.7,0,0,1,3.89-1.94c2.6,0,5.63,1.76,8.27,4,0,0,.47.37,1.27,1.13a32.3,32.3,0,0,1,2.76,2.95,62,62,0,0,1,7.15,10.5C344.28,251.87,349.41,254.63,350.68,255Z" transform="translate(-93.34 -45.43)"/><path class="cls-18" d="M351,255l-.33,0A.84.84,0,0,0,351,255Z" transform="translate(-93.34 -45.43)"/><path class="cls-19" d="M191.33,258.83a6,6,0,0,0-4.82-5.89c-6.76-1.79-13.39-.06-18.52.72l-.11,0a11,11,0,0,1-2.65.33c-5.87,0-11.39-4.14-10.61-11.43a.29.29,0,0,0,0-.09l-.09-.22c-.1.46-.2.91-.28,1.36a10.33,10.33,0,0,0,11.26,11.53c7.45-.84,12.39-3.13,19.3-1.69,3.92.82,6,2.93,6,5.84a9.52,9.52,0,0,1-.52,2.84A6,6,0,0,0,191.33,258.83Z" transform="translate(-93.34 -45.43)"/><path class="cls-20" d="M339.81,241.92c.56.55,1.14,1.09,1.74,1.61-5.64-10.41-8.44-25.9-15-32.55-9.68-9.77-13.44-.89-41.67-22.15s-26.5-34.24-51.59-48.32-57.67-7.27-81.81,18.52c-15,16-21.83,54.78-7.73,90.59a18.4,18.4,0,0,0,13.93,11.08c-7.11-2.19-11.79-7.78-13.06-10.91-12.75-31.39-8.49-72.85,6.52-88.88,24.14-25.78,56.44-32.6,81.67-18.44S256,169.94,284.22,191.2s32,12.39,41.67,22.15C331.58,219.09,335,231.9,339.81,241.92Z" transform="translate(-93.34 -45.43)"/><path class="cls-21" d="M144.58,249.79c-12.75-31.39-8.49-72.85,6.52-88.88.66-.71,1.34-1.4,2-2.08.49-1,1-2,1.52-3-1.07,1-2.14,2.11-3.19,3.23-15,16-21.83,54.78-7.73,90.59a18.4,18.4,0,0,0,13.93,11.08C150.53,258.51,145.85,252.92,144.58,249.79Z" transform="translate(-93.34 -45.43)"/><path class="cls-22" d="M365.57,159l.11-.19c-.82-2.34-1.72-4.65-2.75-6.93-.9-2-1.86-4-2.87-6,.8,1.58,1.55,3.17,2.28,4.79C363.56,153.46,364.63,156.23,365.57,159Z" transform="translate(-93.34 -45.43)"/><path class="cls-23" d="M130.55,200.76a122.38,122.38,0,0,0,.76,13.61h0c.07.63.15,1.25.23,1.87A120.28,120.28,0,0,0,135,233.53h0c3,13,9.41,25.41,11.3,31,2.11,6.22.24,19.31,4.88,29.56,2.53,5.59,4.89,5.79,6.71,5.79a7.06,7.06,0,0,0,3.6-1.32,6,6,0,0,1-8.84-.3l-.13-.17c-.2-.28-.4-.58-.59-.88h0c-.51-.81-1-1.66-1.45-2.55-5-10.06-3.3-22.9-5.41-29.12-1.89-5.59-8.58-17.83-11.59-30.87h0A120.55,120.55,0,0,1,130,217.37c-.08-.62-.15-1.25-.22-1.87A122.43,122.43,0,0,1,179.4,103,122,122,0,0,0,130.55,200.76Z" transform="translate(-93.34 -45.43)"/><path class="cls-24" d="M363.37,243.92s0-.07,0-.11c0-.77,0-1.23,0-1.29a97,97,0,0,1,3.72-25.36c6.17-21.62,5-44.73-4.2-65.25a122.71,122.71,0,0,0-63.71-62.55h0a121.86,121.86,0,0,0-47.9-9.73,124.13,124.13,0,0,0-12.7.65A122.29,122.29,0,0,0,129,201.89c0,4,.21,8,.59,11.92-2.11-50,36.64-121.9,139.64-101.9,73.49,14.27,76.75,63.75,78.25,107.25C348.38,244.12,359.85,254.5,363.37,243.92Z" transform="translate(-93.34 -45.43)"/><path class="cls-24" d="M363.37,243.92s0-.07,0-.11c0-.77,0-1.23,0-1.29a97,97,0,0,1,3.72-25.36c6.17-21.62,5-44.73-4.2-65.25a122.71,122.71,0,0,0-63.71-62.55h0a121.86,121.86,0,0,0-47.9-9.73,124.13,124.13,0,0,0-12.7.65A122.29,122.29,0,0,0,129,201.89c0,4,.21,8,.59,11.92-2.11-50,36.64-121.9,139.64-101.9,73.49,14.27,76.75,63.75,78.25,107.25C348.38,244.12,359.85,254.5,363.37,243.92Z" transform="translate(-93.34 -45.43)"/><path class="cls-25" d="M305.18,104.66c5.49,5.26,13.93,10.28,20,14.84,15.15,11.44,27.42,28.32,34.37,48.29,11.46,32.87,0,57.54,3,69.74.29,1.15.6,2.3.93,3.44a97.41,97.41,0,0,1,3.68-23.81c6.17-21.62,5-44.73-4.2-65.25a122.71,122.71,0,0,0-63.71-62.55h0C299.45,91.7,300,99.72,305.18,104.66Z" transform="translate(-93.34 -45.43)"/><path class="cls-26" d="M136.74,165c9.6-24.08,28.07-47.08,51.44-58.25a131.72,131.72,0,0,1,19-7.45c6-1.81,12.39-2.53,18-5.34,7.65-3.8,12.34-11.89,13.34-13.64A122.28,122.28,0,0,0,129.21,195.39,125.06,125.06,0,0,1,136.74,165Z" transform="translate(-93.34 -45.43)"/><path class="cls-27" d="M367.12,217.16a97.74,97.74,0,0,0-3.72,25.36c0,.06,0,.52,0,1.29,0,0,0,.07,0,.11a9.05,9.05,0,0,1-.54,1.32c0-.43,0-.68,0-.72a97.31,97.31,0,0,1,3.72-25.36c6.17-21.62,5-44.73-4.19-65.25a122.71,122.71,0,0,0-63.71-62.55h0a121.91,121.91,0,0,0-47.9-9.74,126.73,126.73,0,0,0-12.7.65,122.38,122.38,0,0,0-104.58,86.93A122.37,122.37,0,0,1,238.6,80.26a126.89,126.89,0,0,1,12.7-.65,121.87,121.87,0,0,1,47.9,9.74h0a122.71,122.71,0,0,1,63.71,62.55C372.13,172.43,373.29,195.54,367.12,217.16Z" transform="translate(-93.34 -45.43)"/><path class="cls-28" d="M371,189.05a98.92,98.92,0,0,1-3.83,28.11,97.74,97.74,0,0,0-3.72,25.36c0,.06,0,.52,0,1.29,0,0,0,.07,0,.11-3.52,10.57-15,.2-15.85-24.76-1.5-43.5-4.76-93-78.25-107.25C169.5,92.54,130,159.38,129.54,209c-.47-49.8,38.76-118.5,139.72-98.9,73.49,14.27,76.75,63.75,78.25,107.25.86,25,12.33,35.33,15.85,24.76,0,0,0-.07,0-.11,0-.77,0-1.23,0-1.29a97.74,97.74,0,0,1,3.72-25.36A99.24,99.24,0,0,0,371,189.05Z" transform="translate(-93.34 -45.43)"/><path class="cls-29" d="M343.12,246.55a38.43,38.43,0,0,0,7.56,8.4c-.17-.16-2,0-8-8-4.7-6.39-10.87-18.27-16.85-26.6-3.66-5.11-12.83-13-17.17-7.39-1.15,1.78-2.38,3.5-3.52,5.28-.23.36-1.28,1.62-1.62,2l-.64-.37c0-.08,1.79-2.08,2.27-2.82,1.14-1.78,2.17-3.69,3.32-5.46,4.34-5.64,13.74,2.06,17.41,7.18C332.47,227.93,336.26,236.63,343.12,246.55Z" transform="translate(-93.34 -45.43)"/><path class="cls-30" d="M332.27,178.11c-3.17-14-8.14-20.31-10.09-23.21-3.3-5.32-11-11.47-17.74-11.38a18.4,18.4,0,0,0-15.91,9.61,22.58,22.58,0,0,0-2.39,10.93,31.53,31.53,0,0,0,7.09,19.57c5.93,7.46,21.13,18.34,29.52,18.92,3.15.21,6.88-2.08,8.44-5.7C333.5,191.49,333.25,182.46,332.27,178.11Z" transform="translate(-93.34 -45.43)"/><path class="cls-31" d="M332.27,178.11c-3.17-14-8.14-20.31-10.09-23.21-3.3-5.32-11-11.47-17.74-11.38a18.4,18.4,0,0,0-15.91,9.61,19,19,0,0,0-1.91,5.44,15.24,15.24,0,0,1,9.08-1.14c7.21,1.21,21.94,7.73,29.23,28.07a41.31,41.31,0,0,1,2.16,15.92,9.85,9.85,0,0,0,4.1-4.57C333.5,191.49,333.25,182.46,332.27,178.11Z" transform="translate(-93.34 -45.43)"/><path class="cls-32" d="M331.18,196.85a9.16,9.16,0,0,1-1.31,2.17,7.72,7.72,0,0,0,.51-1c2.31-5.35,2.07-14.38,1.08-18.73-3.16-14-8.14-20.32-10.09-23.22-3.29-5.31-11-11.46-17.74-11.37a18.44,18.44,0,0,0-9.36,2.71,18.64,18.64,0,0,0-5.23,4.82,18.38,18.38,0,0,1,15.4-8.72c6.71-.09,14.44,6.06,17.73,11.38,1.95,2.9,6.93,9.19,10.1,23.21C333.25,182.46,333.49,191.49,331.18,196.85Z" transform="translate(-93.34 -45.43)"/><path class="cls-33" d="M299.22,89.36h0a128.93,128.93,0,0,0-48.06-9.52c-4.29,0-12,.52-12.54.44h0s2.69-1.27,2.61-4c0-1.91-2.84-6.56-5.63-10.77-3.37-5.12-9.16-10.13-5.54-16.73,2.93-5.35,20.5-4.9,36.57,5.87C286.25,67.81,299.22,89.36,299.22,89.36Z" transform="translate(-93.34 -45.43)"/><path class="cls-34" d="M299.22,89.36h0c-.58-.24-1.17-.48-1.76-.7-3.34-5.14-15.14-22.13-31.65-33.2-14.63-9.8-29.81-11.23-35.44-7.17,3.72-4.82,20.68-4.07,36.25,6.36C286.25,67.81,299.22,89.36,299.22,89.36Z" transform="translate(-93.34 -45.43)"/><path class="cls-35" d="M243.51,53.91c-12.2-4.12-13.58,1.25-13.58,3.25,1.38,2.92,3.85,5.62,5.64,8.34,2.79,4.21,5.58,8.86,5.63,10.77.08,2.73-2.61,4-2.61,4h0c.57.08,8.25-.44,12.54-.44A127,127,0,0,1,278.82,83C278.62,82.28,263.89,60.79,243.51,53.91Z" transform="translate(-93.34 -45.43)"/><path class="cls-36" d="M278.82,83l-.84-.18C274.58,77.91,261.16,61,243.51,55c-10.6-3.58-13,0-13.5,2.3l-.09-.18c0-2,1.38-7.37,13.59-3.25C263.89,60.79,278.62,82.27,278.82,83Z" transform="translate(-93.34 -45.43)"/><path class="cls-37" d="M303.55,220.24a69.62,69.62,0,0,1-80.91,17.59,8,8,0,0,1,.53-14.82,70.33,70.33,0,0,0,30.56-22.13A64.58,64.58,0,0,0,261,186.37S293.47,214.46,303.55,220.24Z" transform="translate(-93.34 -45.43)"/><path class="cls-38" d="M296.77,215.63a67.56,67.56,0,0,1-51.34,14.78c-4.63-.6-24.42-4.66-19.11-8.67-1,.45-2.08.88-3.15,1.27a8,8,0,0,0-.53,14.82,69.62,69.62,0,0,0,80.91-17.59A76.93,76.93,0,0,1,296.77,215.63Z" transform="translate(-93.34 -45.43)"/><path class="cls-39" d="M301.91,222a69.63,69.63,0,0,1-79.27,15.81,8,8,0,0,1-2.07-13.27,8,8,0,0,0,2.94,12.36A69.79,69.79,0,0,0,252.18,243a68.51,68.51,0,0,0,45.58-18.15c3.05-2.86,5.13-5,5.13-5l.66.39S301,222.87,301.91,222Z" transform="translate(-93.34 -45.43)"/><path class="cls-40" d="M287.14,222.15c-10.16,6.86-21.82,11-43.21,8.7-4.52-.5-23.34-4.44-19.49-8.34.63-.24,1.26-.51,1.88-.77-5.31,4,13.69,7.74,18.32,8.34A68.88,68.88,0,0,0,287.14,222.15Z" transform="translate(-93.34 -45.43)"/><path class="cls-41" d="M261,186.4a67.09,67.09,0,0,1-4.13,9.36l0,0h0a51.37,51.37,0,0,1-3.1,5.09c-21.16-4.11-34-4.77-44.78-4.23a83.87,83.87,0,0,0-12.45,1.55c-4.78,1-12,4.42-12.75,4.82,3.95-4.16.41-9-4.62-8.78-8.63.46-17,3.31-21.55,12.9-3.29,6.92-3,11-6.85,12.62s-8.44-.12-9-6.32c-.19-2-.3-4-.3-6,0-.53,0-1.05,0-1.58.92-33.21,27.72-55.08,60.86-50.66,26.23,3.5,46.69,20.78,58.56,30.89a.76.76,0,0,1,.17.32Z" transform="translate(-93.34 -45.43)"/><path class="cls-42" d="M209.59,175c15.25,4.54,31.86,9.74,44.65,19.48.78.59,1.53,1.2,2.28,1.81.1-.18.22-.37.31-.55h0l0,0A67.09,67.09,0,0,0,261,186.4v0a.76.76,0,0,0-.17-.32c-11.87-10.11-32.33-27.39-58.56-30.89-33.14-4.42-59.94,17.45-60.86,50.66,0,.53,0,1.05,0,1.58,0,1.52.08,3,.19,4.52C152.84,185.26,180.14,166.26,209.59,175Z" transform="translate(-93.34 -45.43)"/><path class="cls-42" d="M209.59,175c15.25,4.54,31.86,9.74,44.65,19.48.78.59,1.53,1.2,2.28,1.81.1-.18.22-.37.31-.55h0l0,0A67.09,67.09,0,0,0,261,186.4v0a.76.76,0,0,0-.17-.32c-11.87-10.11-32.33-27.39-58.56-30.89-33.14-4.42-59.94,17.45-60.86,50.66,0,.53,0,1.05,0,1.58,0,1.52.08,3,.19,4.52C152.84,185.26,180.14,166.26,209.59,175Z" transform="translate(-93.34 -45.43)"/><path class="cls-43" d="M261.5,185.1l-.51,1.27c0,.1,0-.11-.62-.71-11.93-10.15-32.21-27-58.11-30.5-33.15-4.42-59.94,17.45-60.86,50.66,0,.53,0,1.05,0,1.58q0,1.24.06,2.49l-.12.28c-.11-1.5-.19-3-.19-4.52,0-.53,0-1.05,0-1.58.92-33.21,27.71-55.08,60.86-50.66,26.23,3.5,46.69,20.78,58.56,30.89A9.07,9.07,0,0,1,261.5,185.1Z" transform="translate(-93.34 -45.43)"/><path class="cls-44" d="M256.51,196.33c-.74-.62-1.5-1.22-2.27-1.81-12.79-9.74-29.4-14.94-44.65-19.49-29.45-8.77-56.75,10.23-68,36.89-.08-1.07,19.74-52,69.9-37.92C245.93,183.63,256.61,196.15,256.51,196.33Z" transform="translate(-93.34 -45.43)"/><path class="cls-45" d="M261,186.37v0c0,.1-.15.42-.33.93-12-10.17-32.15-26.89-57.89-30.32-33.15-4.42-59.94,17.45-60.86,50.66,0,.53,0,1.05,0,1.58s0,1.25,0,1.87c-.12.27-.24.53-.35.8-.11-1.5-.19-3-.19-4.52,0-.53,0-1.05,0-1.58.92-33.21,27.71-55.08,60.86-50.66,26.23,3.5,46.31,20.53,58.18,30.64A3.69,3.69,0,0,1,261,186.37Z" transform="translate(-93.34 -45.43)"/><path class="cls-46" d="M186.81,253l.39.11Z" transform="translate(-93.34 -45.43)"/><path class="cls-47" d="M253.73,200.87A64.27,64.27,0,0,0,261,186.39a76.77,76.77,0,0,1-10.15,13.22l-.64.58C250.94,200.33,252.92,200.69,253.73,200.87Z" transform="translate(-93.34 -45.43)"/><circle class="cls-48" cx="233.55" cy="164.75" r="3.38"/><path class="cls-49" d="M327.73,209.13a6.39,6.39,0,0,0,1.94-.43,3.22,3.22,0,0,0-4.73-1.06A4.28,4.28,0,0,0,327.73,209.13Z" transform="translate(-93.34 -45.43)"/><path class="cls-48" d="M329,212.81a2.92,2.92,0,0,1-2,.73H327A3.38,3.38,0,0,0,329,212.81Z" transform="translate(-93.34 -45.43)"/><path class="cls-50" d="M174.58,257c-8.38.7-11.38.82-15.88-1.18-5.88-2.62-5.25-12-1.89-20.88a67.91,67.91,0,0,1,4.55-10.26c-.8.77-7.09,8.73-9.92,21-3.86,16.81,1.23,31.65,2.26,35.06,1.56,5.19,4.89,4.21,6.65,1.19,7.54-13,16-17.9,17.92-19C183.39,260,181,256.44,174.58,257Z" transform="translate(-93.34 -45.43)"/><path class="cls-51" d="M152.68,251.7c-.33-4.95-.27-12.91,8.68-27-.8.77-7.09,8.73-9.92,21-3.86,16.81,1.23,31.65,2.26,35.06,1.56,5.19,4.89,4.21,6.65,1.19a60.67,60.67,0,0,1,8.13-11.06c.43-.45,1.46-1.48,2.08-2.11C156.45,266.08,153.2,259.63,152.68,251.7Z" transform="translate(-93.34 -45.43)"/><path class="cls-52" d="M181,259.49c.08,1.05-.78,2.28-2.77,3.42s-10.38,6-17.93,19c-1.75,3-5.08,4-6.64-1.19-1-3.27-5.71-17-2.69-33-2.35,15.15,2.05,28,3,31.15,1.56,5.19,4.46,4.27,6.21,1.25,7.54-13,16.58-17.52,18.5-18.62A6.31,6.31,0,0,0,181,259.49Z" transform="translate(-93.34 -45.43)"/><path class="cls-53" d="M370.05,181.09a98.39,98.39,0,0,1-3.51,34.9,103.88,103.88,0,0,0-3.94,26.19c0,.06,0,.53,0,1.29-.25,10.14-12.12,14.44-19.18,6.93-.19-.21-.38-.39-.55-.56-1.77-1.82-5.7-5.22-6.58-5.54,2.36,2.18,4.67,4.4,6.9,6.69l.55.56a11.46,11.46,0,0,0,19.66-7.74c0-.77,0-1.23,0-1.29a97.74,97.74,0,0,1,3.72-25.36,98.28,98.28,0,0,0,3.36-36.83C370.34,180.59,370.2,180.84,370.05,181.09Z" transform="translate(-93.34 -45.43)"/><path class="cls-54" d="M361.35,158.76c-2.48,3.05-4.14,7.9-2.91,12.25.66,4,6.17,19.22,4.17,31.55-3.58,22-2,25.48,1.51,29.59a95.19,95.19,0,0,1,3-15,95.72,95.72,0,0,0-2.54-61.29A14.94,14.94,0,0,0,361.35,158.76Z" transform="translate(-93.34 -45.43)"/><text class="cls-55" transform="translate(0 336.41) scale(1.05 1)">Williamz<tspan class="cls-56" x="192.89" y="0">v</tspan><tspan class="cls-57" x="215.15" y="0">.dev</tspan></text></g></g></svg>